HIERARCHY
ROOT Hips
{
	OFFSET 0.000000 100.481300 0.000000
	CHANNELS 6 Xposition Yposition Zposition Xrotation Yrotation Zrotation
	JOINT Spine
	{
		OFFSET -0.279200 12.230698 -2.892100
		CHANNELS 3 Xrotation Yrotation Zrotation
		JOINT Spine1
		{
			OFFSET -0.325700 14.269203 -3.374200
			CHANNELS 3 Xrotation Yrotation Zrotation
			JOINT Spine2
			{
				OFFSET -0.372300 16.307602 -0.352600
				CHANNELS 3 Xrotation Yrotation Zrotation
				JOINT Neck
				{
					OFFSET -0.418800 17.814194 8.416900
					CHANNELS 3 Xrotation Yrotation Zrotation
					JOINT Head
					{
						OFFSET 0.000000 7.031097 3.806800
						CHANNELS 3 Xrotation Yrotation Zrotation
						JOINT HeadTop_End
						{
							OFFSET 0.000000 24.646606 12.978600
							CHANNELS 3 Xrotation Yrotation Zrotation
							End Site
							{
								OFFSET 0.000000 27.854965 0.000000
							}
						}
					}
				}
				JOINT LeftShoulder
				{
					OFFSET 16.952999 14.495407 -7.737500
					CHANNELS 3 Xrotation Yrotation Zrotation
					JOINT LeftArm
					{
						OFFSET 9.308998 -2.777710 0.208600
						CHANNELS 3 Xrotation Yrotation Zrotation
						JOINT LeftForeArm
						{
							OFFSET 29.972298 0.000000 0.000000
							CHANNELS 3 Xrotation Yrotation Zrotation
							JOINT LeftHand
							{
								OFFSET 26.026505 0.000000 0.000000
								CHANNELS 3 Xrotation Yrotation Zrotation
								JOINT LeftHandThumb1
								{
									OFFSET 12.240501 -7.147949 9.207150
									CHANNELS 3 Xrotation Yrotation Zrotation
									JOINT LeftHandThumb2
									{
										OFFSET 4.138618 -2.389435 2.389433
										CHANNELS 3 Xrotation Yrotation Zrotation
										JOINT LeftHandThumb3
										{
											OFFSET 2.726913 -1.574387 1.574386
											CHANNELS 3 Xrotation Yrotation Zrotation
											JOINT LeftHandThumb4
											{
												OFFSET 3.941010 -2.275345 2.275342
												CHANNELS 3 Xrotation Yrotation Zrotation
												End Site
												{
													OFFSET -0.005798 5.087799 0.009903
												}
											}
										}
									}
								}
								JOINT LeftHandIndex1
								{
									OFFSET 24.424698 -1.985611 5.953459
									CHANNELS 3 Xrotation Yrotation Zrotation
									JOINT LeftHandIndex2
									{
										OFFSET 6.426697 0.000000 0.000000
										CHANNELS 3 Xrotation Yrotation Zrotation
										JOINT LeftHandIndex3
										{
											OFFSET 5.337898 0.000000 0.000000
											CHANNELS 3 Xrotation Yrotation Zrotation
											JOINT LeftHandIndex4
											{
												OFFSET 4.409401 0.000000 0.000000
												CHANNELS 3 Xrotation Yrotation Zrotation
												End Site
												{
													OFFSET 0.000000 4.409363 0.014373
												}
											}
										}
									}
								}
								JOINT LeftHandMiddle1
								{
									OFFSET 23.810104 0.000000 0.000000
									CHANNELS 3 Xrotation Yrotation Zrotation
									JOINT LeftHandMiddle2
									{
										OFFSET 7.176498 0.000000 0.000000
										CHANNELS 3 Xrotation Yrotation Zrotation
										JOINT LeftHandMiddle3
										{
											OFFSET 6.774902 0.000000 0.000000
											CHANNELS 3 Xrotation Yrotation Zrotation
											JOINT LeftHandMiddle4
											{
												OFFSET 5.403328 0.000000 0.000000
												CHANNELS 3 Xrotation Yrotation Zrotation
												End Site
												{
													OFFSET -0.027702 5.403244 0.017414
												}
											}
										}
									}
								}
								JOINT LeftHandRing1
								{
									OFFSET 22.908401 -0.839279 -6.020567
									CHANNELS 3 Xrotation Yrotation Zrotation
									JOINT LeftHandRing2
									{
										OFFSET 6.337502 0.000000 0.000000
										CHANNELS 3 Xrotation Yrotation Zrotation
										JOINT LeftHandRing3
										{
											OFFSET 5.779297 0.000000 0.000000
											CHANNELS 3 Xrotation Yrotation Zrotation
											JOINT LeftHandRing4
											{
												OFFSET 4.965698 0.000000 0.000000
												CHANNELS 3 Xrotation Yrotation Zrotation
												End Site
												{
													OFFSET 0.000000 4.965668 0.016186
												}
											}
										}
									}
								}
								JOINT LeftHandPinky1
								{
									OFFSET 20.037003 -1.530319 -10.950146
									CHANNELS 3 Xrotation Yrotation Zrotation
									JOINT LeftHandPinky2
									{
										OFFSET 5.254700 0.000000 0.000000
										CHANNELS 3 Xrotation Yrotation Zrotation
										JOINT LeftHandPinky3
										{
											OFFSET 4.810204 0.000000 0.000000
											CHANNELS 3 Xrotation Yrotation Zrotation
											JOINT LeftHandPinky4
											{
												OFFSET 3.647202 0.000000 0.000000
												CHANNELS 3 Xrotation Yrotation Zrotation
												End Site
												{
													OFFSET 0.000000 3.647186 0.011889
												}
											}
										}
									}
								}
							}
						}
					}
				}
				JOINT RightShoulder
				{
					OFFSET -15.141001 14.495407 -7.737500
					CHANNELS 3 Xrotation Yrotation Zrotation
					JOINT RightArm
					{
						OFFSET -9.308998 -2.777710 0.208500
						CHANNELS 3 Xrotation Yrotation Zrotation
						JOINT RightForeArm
						{
							OFFSET -29.972300 0.000000 0.000000
							CHANNELS 3 Xrotation Yrotation Zrotation
							JOINT RightHand
							{
								OFFSET -26.026505 0.000000 0.000000
								CHANNELS 3 Xrotation Yrotation Zrotation
								JOINT RightHandThumb1
								{
									OFFSET -12.240601 -7.148026 9.207092
									CHANNELS 3 Xrotation Yrotation Zrotation
									JOINT RightHandThumb2
									{
										OFFSET -4.138618 -2.389435 2.389433
										CHANNELS 3 Xrotation Yrotation Zrotation
										JOINT RightHandThumb3
										{
											OFFSET -2.726974 -1.574417 1.574421
											CHANNELS 3 Xrotation Yrotation Zrotation
											JOINT RightHandThumb4
											{
												OFFSET -3.941010 -2.275345 2.275343
												CHANNELS 3 Xrotation Yrotation Zrotation
												End Site
												{
													OFFSET 0.005814 5.087799 0.009927
												}
											}
										}
									}
								}
								JOINT RightHandIndex1
								{
									OFFSET -24.424698 -1.985657 5.953444
									CHANNELS 3 Xrotation Yrotation Zrotation
									JOINT RightHandIndex2
									{
										OFFSET -6.426697 0.000000 0.000000
										CHANNELS 3 Xrotation Yrotation Zrotation
										JOINT RightHandIndex3
										{
											OFFSET -5.337898 0.000000 0.000000
											CHANNELS 3 Xrotation Yrotation Zrotation
											JOINT RightHandIndex4
											{
												OFFSET -4.409401 0.000000 0.000000
												CHANNELS 3 Xrotation Yrotation Zrotation
												End Site
												{
													OFFSET 0.000000 4.409363 0.014408
												}
											}
										}
									}
								}
								JOINT RightHandMiddle1
								{
									OFFSET -23.810097 0.000000 0.000000
									CHANNELS 3 Xrotation Yrotation Zrotation
									JOINT RightHandMiddle2
									{
										OFFSET -7.176498 0.000000 0.000000
										CHANNELS 3 Xrotation Yrotation Zrotation
										JOINT RightHandMiddle3
										{
											OFFSET -6.774902 0.000000 0.000000
											CHANNELS 3 Xrotation Yrotation Zrotation
											JOINT RightHandMiddle4
											{
												OFFSET -5.403328 0.000000 0.000000
												CHANNELS 3 Xrotation Yrotation Zrotation
												End Site
												{
													OFFSET 0.027702 5.403244 0.017457
												}
											}
										}
									}
								}
								JOINT RightHandRing1
								{
									OFFSET -22.908302 -0.839325 -6.020576
									CHANNELS 3 Xrotation Yrotation Zrotation
									JOINT RightHandRing2
									{
										OFFSET -6.337502 0.000000 0.000000
										CHANNELS 3 Xrotation Yrotation Zrotation
										JOINT RightHandRing3
										{
											OFFSET -5.779297 0.000000 0.000000
											CHANNELS 3 Xrotation Yrotation Zrotation
											JOINT RightHandRing4
											{
												OFFSET -4.965698 0.000000 0.000000
												CHANNELS 3 Xrotation Yrotation Zrotation
												End Site
												{
													OFFSET 0.000000 4.965668 0.016226
												}
											}
										}
									}
								}
								JOINT RightHandPinky1
								{
									OFFSET -20.037003 -1.530334 -10.950259
									CHANNELS 3 Xrotation Yrotation Zrotation
									JOINT RightHandPinky2
									{
										OFFSET -5.254700 0.000000 0.000000
										CHANNELS 3 Xrotation Yrotation Zrotation
										JOINT RightHandPinky3
										{
											OFFSET -4.810204 0.000000 0.000000
											CHANNELS 3 Xrotation Yrotation Zrotation
											JOINT RightHandPinky4
											{
												OFFSET -3.647202 0.000000 0.000000
												CHANNELS 3 Xrotation Yrotation Zrotation
												End Site
												{
													OFFSET 0.000000 3.647186 0.011917
												}
											}
										}
									}
								}
							}
						}
					}
				}
			}
		}
	}
	JOINT LeftUpLeg
	{
		OFFSET 15.427100 -6.655098 0.678600
		CHANNELS 3 Xrotation Yrotation Zrotation
		JOINT LeftLeg
		{
			OFFSET 4.081073 -39.591068 13.024000
			CHANNELS 3 Xrotation Yrotation Zrotation
			JOINT LeftFoot
			{
				OFFSET -4.081074 -37.707932 -15.979700
				CHANNELS 3 Xrotation Yrotation Zrotation
				JOINT LeftToeBase
				{
					OFFSET 5.346399 -15.068900 20.645000
					CHANNELS 3 Xrotation Yrotation Zrotation
					JOINT LeftToe_End
					{
						OFFSET 2.754700 0.931300 11.300900
						CHANNELS 3 Xrotation Yrotation Zrotation
						End Site
						{
							OFFSET 0.000000 11.669021 0.000000
						}
					}
				}
			}
		}
	}
	JOINT RightUpLeg
	{
		OFFSET -15.569500 -6.655098 0.678600
		CHANNELS 3 Xrotation Yrotation Zrotation
		JOINT RightLeg
		{
			OFFSET -4.081825 -39.591045 13.023800
			CHANNELS 3 Xrotation Yrotation Zrotation
			JOINT RightFoot
			{
				OFFSET 4.081824 -37.707954 -15.979600
				CHANNELS 3 Xrotation Yrotation Zrotation
				JOINT RightToeBase
				{
					OFFSET -5.346400 -15.068900 20.645000
					CHANNELS 3 Xrotation Yrotation Zrotation
					JOINT RightToe_End
					{
						OFFSET -2.754700 0.931300 11.300900
						CHANNELS 3 Xrotation Yrotation Zrotation
						End Site
						{
							OFFSET 0.000000 11.669021 0.000000
						}
					}
				}
			}
		}
	}
}
MOTION
Frames: 4
Frame Time: 0.033333
51.689995 66.372864 3.940819 24.598916 -44.989937 8.386306 27.765358 10.449714 -6.651780 7.100687 -1.051250 -9.516088 9.986961 -4.107937 -3.855999 -18.024178 9.757549 2.409518 -25.972110 20.312708 20.127657 -0.000000 -0.000001 -0.000001 -35.849170 -12.665440 9.066103 -87.127799 -24.083650 -61.210864 0.000001 -39.233392 0.000002 -118.799201 12.009903 22.294888 1.567996 0.456395 2.719342 19.473178 -1.474909 7.636916 -4.536187 -9.613099 1.492967 -0.000000 0.000001 -0.000002 -1.882823 2.129419 -39.817018 2.947101 5.081729 -60.200529 0.514387 2.402398 -24.167381 -0.000003 -0.000000 0.000000 0.405917 5.507052 -52.453172 3.387132 5.308621 -65.057456 0.282014 1.797463 -17.832379 -0.000001 -0.000001 0.000002 -0.074374 5.736794 -61.061427 4.422097 5.674481 -75.840399 0.582660 2.548960 -25.748005 0.000001 0.000001 0.000002 2.216807 7.072468 -64.435417 4.422630 5.674612 -75.845788 1.294116 3.673925 -38.798456 0.000000 -0.000000 -0.000000 -47.939394 11.815111 14.911782 -38.656787 37.917471 74.099807 0.000091 108.041285 -0.000087 -30.947147 -27.282812 -32.362218 8.377143 -4.904130 11.022000 21.620211 -18.183902 -18.379237 -0.702908 -49.821203 -32.535152 -0.000001 0.000002 0.000000 -1.101398 1.407133 15.159513 1.422356 -3.352175 45.974092 0.615850 -2.316444 29.773119 0.000000 0.000000 -0.000000 3.413056 -7.186256 51.650239 6.296806 -4.359582 110.634680 0.248717 -1.503065 18.790281 0.000001 -0.000000 -0.000000 -3.349038 -2.600426 57.010564 5.440867 -4.590888 99.698168 1.689407 -3.590707 50.382235 0.000000 -0.000000 0.000001 -3.996434 -3.303933 64.593843 4.058835 -4.618669 82.610530 2.315546 -4.026796 59.787228 0.000000 0.000000 -0.000001 -91.919094 -0.201168 4.551931 69.539645 7.982270 -0.101726 -14.135152 1.469324 -6.412471 -4.936690 -0.000005 -0.000012 0.000002 -0.000003 0.000000 -33.857200 -22.464086 13.263568 65.815225 -6.452206 6.133962 -50.439086 -13.636584 -10.020615 -2.459137 0.000017 0.000004 0.000000 0.000000 0.000000 
55.329628 66.360542 2.947432 23.838506 -44.454119 7.726844 27.344555 9.986585 -6.580419 6.971015 -1.187043 -9.551982 9.739059 -4.297314 -3.692127 -18.001804 9.754616 2.605670 -25.314957 20.316036 20.486365 0.000000 0.000001 0.000001 -35.710053 -12.501624 9.441501 -86.975226 -24.660740 -61.619979 -0.000035 -37.971183 -0.000020 -118.691080 12.563358 22.552275 1.567995 0.456393 2.719341 19.473182 -1.474908 7.636914 -4.536185 -9.613093 1.492967 0.000001 -0.000001 0.000000 -1.882824 2.129419 -39.817018 2.947101 5.081729 -60.200522 0.514387 2.402398 -24.167385 0.000002 -0.000000 0.000000 0.405917 5.507051 -52.453169 3.387134 5.308621 -65.057463 0.282014 1.797462 -17.832372 0.000001 -0.000001 0.000000 -0.074375 5.736792 -61.061427 4.422089 5.674481 -75.840399 0.582661 2.548966 -25.748003 0.000000 0.000001 0.000001 2.216806 7.072468 -64.435417 4.422630 5.674611 -75.845788 1.294117 3.673922 -38.798463 -0.000000 -0.000001 0.000000 -48.218581 12.099795 16.023865 -37.602131 37.627539 73.914750 -0.000014 108.330953 0.000004 -31.593846 -27.712033 -33.310454 8.377146 -4.904131 11.021999 21.620207 -18.183902 -18.379233 -0.702913 -49.821196 -32.535152 -0.000001 -0.000002 0.000001 -1.101398 1.407132 15.159514 1.422356 -3.352175 45.974092 0.615849 -2.316444 29.773119 -0.000000 0.000000 -0.000000 3.413057 -7.186257 51.650235 6.296805 -4.359582 110.634680 0.248719 -1.503065 18.790282 0.000001 -0.000000 0.000000 -3.349038 -2.600427 57.010568 5.440868 -4.590889 99.698168 1.689407 -3.590708 50.382238 0.000000 -0.000001 0.000002 -3.996434 -3.303933 64.593837 4.058834 -4.618670 82.610523 2.315547 -4.026796 59.787228 -0.000000 -0.000000 0.000000 -90.336260 -2.164712 9.661386 72.246073 2.735836 0.274383 -11.096957 0.127165 -9.675465 -4.988053 0.000010 0.000001 -0.000001 -0.000003 0.000001 -38.968179 -23.361354 10.885611 67.623073 -6.565324 5.216383 -47.141938 -14.903208 -9.598660 -2.451611 -0.000058 -0.000005 0.000000 -0.000000 0.000000 
59.424747 66.539719 2.060358 23.174813 -43.879475 7.064002 26.659367 9.610285 -6.404686 6.859077 -1.329774 -9.570591 9.508364 -4.491489 -3.506318 -17.964149 9.743500 2.843130 -24.666958 20.322791 20.881751 -0.000000 -0.000000 -0.000000 -35.556985 -12.377172 9.857037 -86.444343 -25.068874 -61.746051 0.000003 -37.260721 0.000008 -118.743686 12.923129 22.927410 1.567996 0.456393 2.719342 19.473180 -1.474901 7.636913 -4.536184 -9.613092 1.492968 0.000000 0.000004 -0.000001 -1.882823 2.129419 -39.817025 2.947101 5.081732 -60.200522 0.514388 2.402398 -24.167386 0.000002 0.000001 0.000002 0.405917 5.507049 -52.453172 3.387133 5.308620 -65.057463 0.282013 1.797462 -17.832381 0.000001 0.000003 0.000002 -0.074374 5.736795 -61.061427 4.422091 5.674481 -75.840399 0.582666 2.548964 -25.748001 -0.000001 -0.000001 -0.000001 2.216807 7.072466 -64.435417 4.422633 5.674613 -75.845788 1.294123 3.673922 -38.798463 0.000001 -0.000000 -0.000000 -48.510066 12.328343 17.138623 -36.494575 37.397564 73.768509 0.000088 108.617056 -0.000091 -32.112988 -28.127245 -34.110265 8.377145 -4.904130 11.021999 21.620209 -18.183902 -18.379235 -0.702911 -49.821200 -32.535148 -0.000003 0.000001 0.000003 -1.101398 1.407132 15.159516 1.422356 -3.352175 45.974089 0.615850 -2.316444 29.773122 0.000000 0.000000 0.000000 3.413056 -7.186257 51.650235 6.296805 -4.359582 110.634680 0.248718 -1.503065 18.790282 -0.000002 -0.000000 -0.000000 -3.349039 -2.600426 57.010571 5.440867 -4.590888 99.698168 1.689407 -3.590707 50.382242 -0.000000 -0.000000 -0.000002 -3.996434 -3.303933 64.593837 4.058834 -4.618670 82.610523 2.315546 -4.026796 59.787228 -0.000000 0.000000 -0.000000 -88.942464 -4.814731 13.702667 75.866080 -0.586905 2.198395 -8.394054 -1.841663 -8.475344 -3.587063 -0.000003 -0.000002 -0.000000 0.000002 -0.000000 -44.560410 -23.508253 7.921945 68.889069 -7.057112 4.366220 -42.692917 -16.164493 -8.355619 -2.446349 0.000016 -0.000001 0.000000 -0.000000 -0.000000 
63.904449 66.732643 1.165483 22.544276 -43.198119 6.524016 25.767307 9.086138 -6.312682 6.757349 -1.483832 -9.571580 9.286038 -4.695825 -3.295691 -17.949452 9.718438 3.124727 -24.055078 20.317448 21.314227 0.000001 0.000000 -0.000000 -35.504150 -12.055461 10.017510 -85.928738 -25.577383 -61.909962 -0.000010 -36.781911 -0.000014 -118.790732 13.237840 23.312899 1.567996 0.456391 2.719342 19.473182 -1.474906 7.636916 -4.536183 -9.613091 1.492970 0.000000 0.000001 -0.000001 -1.882823 2.129420 -39.817021 2.947101 5.081732 -60.200522 0.514385 2.402397 -24.167381 0.000001 -0.000001 0.000002 0.405916 5.507053 -52.453169 3.387131 5.308622 -65.057456 0.282018 1.797463 -17.832379 0.000000 0.000002 0.000000 -0.074375 5.736793 -61.061427 4.422093 5.674479 -75.840399 0.582662 2.548961 -25.748001 0.000001 -0.000002 -0.000001 2.216807 7.072468 -64.435417 4.422630 5.674613 -75.845788 1.294119 3.673925 -38.798463 0.000000 0.000002 -0.000000 -48.811383 12.485453 18.190358 -35.471389 37.294144 73.795939 0.000079 108.833361 -0.000083 -32.401844 -28.429382 -34.712995 8.377144 -4.904130 11.022000 21.620209 -18.183902 -18.379233 -0.702911 -49.821193 -32.535148 0.000000 -0.000000 0.000003 -1.101398 1.407132 15.159514 1.422356 -3.352175 45.974092 0.615850 -2.316444 29.773119 -0.000000 -0.000000 0.000000 3.413056 -7.186256 51.650239 6.296805 -4.359582 110.634680 0.248717 -1.503065 18.790279 0.000000 -0.000000 0.000000 -3.349038 -2.600426 57.010575 5.440867 -4.590888 99.698168 1.689407 -3.590708 50.382235 0.000000 -0.000000 -0.000000 -3.996434 -3.303933 64.593837 4.058834 -4.618669 82.610523 2.315546 -4.026795 59.787234 0.000000 -0.000000 -0.000001 -86.013610 -8.050719 17.476873 77.907610 -3.868027 4.130126 -5.926231 -1.681015 -7.696559 -3.313573 0.000004 -0.000005 0.000000 -0.000002 -0.000000 -50.600613 -24.411834 5.196699 69.069987 -3.845913 3.239753 -38.093447 -19.700762 -10.386329 -2.450033 0.000008 -0.000008 0.000000 0.000000 0.000000 
